<svg width="59" height="31" viewBox="0 0 59 31" fill="none" xmlns="http://www.w3.org/2000/svg">
<circle cx="29.0912" cy="15.5" r="14.5" fill="#D9D9D9" fill-opacity="0.25" stroke="#D9D9D9" stroke-opacity="0.25"/>
<path d="M0.285706 11.2521C0.285706 10.1475 1.18114 9.25208 2.28571 9.25208H9.28571C10.3903 9.25208 11.2857 10.1475 11.2857 11.2521V18.2521C11.2857 19.3566 10.3903 20.2521 9.28571 20.2521H2.28571C1.18114 20.2521 0.285706 19.3566 0.285706 18.2521V11.2521Z" fill="#D9D9D9" fill-opacity="0.25"/>
<path d="M0.785706 11.2521C0.785706 10.4236 1.45728 9.75208 2.28571 9.75208H9.28571C10.1141 9.75208 10.7857 10.4236 10.7857 11.2521V18.2521C10.7857 19.0805 10.1141 19.7521 9.28571 19.7521H2.28571C1.45728 19.7521 0.785706 19.0805 0.785706 18.2521V11.2521Z" stroke="#D9D9D9" stroke-opacity="0.25"/>
<rect x="47.2857" y="9.25208" width="11" height="11" rx="2" fill="#D9D9D9" fill-opacity="0.25"/>
<rect x="47.7857" y="9.75208" width="10" height="10" rx="1.5" stroke="#D9D9D9" stroke-opacity="0.25"/>
</svg>
