<svg width="22" height="21" viewBox="0 0 22 21" fill="none" xmlns="http://www.w3.org/2000/svg">
<line x1="6.19702" y1="1.70923" x2="21" y2="1.70923" stroke="#D9C666"/>
<line x1="21.5" y1="1" x2="21.5" y2="13" stroke="#D9C666"/>
<path d="M21 12.8273L5.5 12.8273" stroke="#D9C666"/>
<line y1="-0.5" x2="4.57567" y2="-0.5" transform="matrix(-0.7836 -0.621265 0.667332 -0.744761 6.19702 12.3273)" stroke="#D9C666"/>
<line x1="2.11157" y1="9.48462" x2="2.11157" y2="5.43737" stroke="#D9C666"/>
<line y1="-0.5" x2="1.33491" y2="-0.5" transform="matrix(0.6523 -0.757961 0.795595 0.605829 2.61157 5.43738)" stroke="#D9C666"/>
<path d="M2.19482 4.83508L5.00006 3.5" stroke="#D9C666"/>
<line x1="6.41603" y1="1.27735" x2="4.41603" y2="4.27735" stroke="#D9C666"/>
<line x1="2.33704" y1="10.6307" x2="13.2953" y2="20.6307" stroke="#D9C666"/>
<line y1="-0.5" x2="10.3523" y2="-0.5" transform="matrix(0.742177 -0.670204 0.714268 0.699872 12.9583 21)" stroke="#D9C666"/>
<line y1="-0.5" x2="2.35158" y2="-0.5" transform="matrix(0.675233 0.737604 -0.777062 0.629424 18 13)" stroke="#D9C666"/>
<path d="M17.0682 7.36465C17.0682 9.32197 15.3721 10.9601 13.2144 10.9601C11.0567 10.9601 9.3606 9.32197 9.3606 7.36465C9.3606 5.40733 11.0567 3.76923 13.2144 3.76923C15.3721 3.76923 17.0682 5.40733 17.0682 7.36465Z" stroke="#D9C666"/>
<mask id="path-13-inside-1_6_252" fill="white">
<ellipse cx="4.50673" cy="7.26829" rx="1.02443" ry="0.96363"/>
</mask>
<path d="M4.53116 7.26829C4.53116 7.256 4.53411 7.24328 4.53861 7.23328C4.5427 7.22418 4.54639 7.22087 4.54595 7.22129C4.54473 7.22243 4.53319 7.23192 4.50673 7.23192V9.23192C5.56627 9.23192 6.53116 8.40953 6.53116 7.26829H4.53116ZM4.50673 7.23192C4.48027 7.23192 4.46873 7.22243 4.46751 7.22129C4.46707 7.22087 4.47075 7.22418 4.47485 7.23328C4.47934 7.24328 4.4823 7.256 4.4823 7.26829H2.4823C2.4823 8.40953 3.44719 9.23192 4.50673 9.23192V7.23192ZM4.4823 7.26829C4.4823 7.28057 4.47934 7.2933 4.47485 7.3033C4.47075 7.3124 4.46707 7.3157 4.46751 7.31529C4.46873 7.31414 4.48027 7.30466 4.50673 7.30466V5.30466C3.44719 5.30466 2.4823 6.12705 2.4823 7.26829H4.4823ZM4.50673 7.30466C4.53319 7.30466 4.54473 7.31414 4.54595 7.31529C4.54639 7.3157 4.5427 7.3124 4.53861 7.3033C4.53411 7.2933 4.53116 7.28057 4.53116 7.26829H6.53116C6.53116 6.12705 5.56627 5.30466 4.50673 5.30466V7.30466Z" fill="#D9C666" mask="url(#path-13-inside-1_6_252)"/>
<path d="M7.1958 12.8573C8.92088 17.4521 13.8225 17.4011 15.4424 12.8573" stroke="#D9C666"/>
<mask id="path-16-inside-2_6_252" fill="white">
<ellipse cx="4.76282" cy="7.12372" rx="0.512214" ry="0.481815"/>
</mask>
<path d="M4.27504 7.12372C4.27504 6.78078 4.55195 6.60554 4.76282 6.60554V8.60554C5.53948 8.60554 6.27504 7.99886 6.27504 7.12372H4.27504ZM4.76282 6.60554C4.9737 6.60554 5.25061 6.78078 5.25061 7.12372H3.25061C3.25061 7.99886 3.98617 8.60554 4.76282 8.60554V6.60554ZM5.25061 7.12372C5.25061 7.46666 4.9737 7.64191 4.76282 7.64191V5.64191C3.98617 5.64191 3.25061 6.24858 3.25061 7.12372H5.25061ZM4.76282 7.64191C4.55195 7.64191 4.27504 7.46666 4.27504 7.12372H6.27504C6.27504 6.24858 5.53948 5.64191 4.76282 5.64191V7.64191Z" fill="#D9C666" mask="url(#path-16-inside-2_6_252)"/>
<line x1="2.11157" y1="11.4601" x2="2.11157" y2="6.6419" stroke="#D9C666"/>
<path d="M2.58591 5.53374C-2.30574 -2.34393 5.78724 1.26967 4.63477 7.09964" stroke="#D9C666"/>
</svg>
