<svg width="27" height="19" viewBox="0 0 27 19" fill="none" xmlns="http://www.w3.org/2000/svg">
<path d="M1.1126 18C0.856118 16.1449 1.00801 15.1923 1.87865 13.6713" stroke="white"/>
<path d="M14.2889 17.9999C14.3948 16.2424 14.1939 15.2967 13.2871 13.7024" stroke="white"/>
<path d="M25.9744 16.4429C26.0803 14.6854 25.8793 13.7396 24.9725 12.1453" stroke="white"/>
<path d="M1.8512 13.7647L5.6267 12.7059" stroke="white"/>
<path d="M13.5366 12.2076L17.3121 11.1488" stroke="white"/>
<path d="M13.2872 13.7647L9.45702 12.7682" stroke="white"/>
<path d="M24.9725 12.2077L21.1423 11.2111" stroke="white"/>
<path d="M5.62671 12.7682L7.54182 15.1973" stroke="white"/>
<path d="M17.312 11.2111L19.2271 13.6402" stroke="white"/>
<path d="M9.45703 12.7682L7.54192 15.1973" stroke="white"/>
<path d="M21.1425 11.2111L19.2273 13.6402" stroke="white"/>
<path d="M10.2699 6.45107C9.8952 7.80197 9.48444 9.03066 9.01839 9.91825C8.78142 10.3696 8.54421 10.7049 8.31225 10.922C8.08442 11.1353 7.8903 11.2093 7.71967 11.2093C7.54578 11.2093 7.34661 11.1344 7.11292 10.9219C6.87553 10.7059 6.63136 10.3726 6.38659 9.92371C5.90524 9.04102 5.47517 7.81318 5.08764 6.44934C5.1009 5.20244 5.47676 4.08218 5.99075 3.27962C6.53509 2.42966 7.14622 2.0571 7.55624 2.0571C7.75685 2.0571 8.02708 2.14319 8.33947 2.35856C8.64728 2.57077 8.96707 2.88938 9.25742 3.29907C9.82832 4.10463 10.2551 5.2193 10.2699 6.45107Z" stroke="white"/>
<path d="M21.9551 4.89397C21.5804 6.24488 21.1696 7.47356 20.7036 8.36115C20.4666 8.81245 20.2294 9.14785 19.9974 9.36494C19.7696 9.57817 19.5755 9.65225 19.4048 9.65225C19.231 9.65225 19.0318 9.57732 18.7981 9.36477C18.5607 9.14885 18.3165 8.81545 18.0718 8.36661C17.5904 7.48392 17.1603 6.25608 16.7728 4.89224C16.7861 3.64535 17.1619 2.52508 17.6759 1.72252C18.2203 0.872557 18.8314 0.5 19.2414 0.5C19.442 0.5 19.7123 0.586091 20.0246 0.801461C20.3325 1.01368 20.6523 1.33229 20.9426 1.74197C21.5135 2.54754 21.9403 3.66221 21.9551 4.89397Z" stroke="white"/>
</svg>
