<svg width="22" height="21" viewBox="0 0 22 21" fill="none" xmlns="http://www.w3.org/2000/svg">
<path d="M1 17.0081L1.01139 17.5952L1.0219 18.1371" stroke="white"/>
<path d="M20.9994 17.0081L20.9995 17.5952L20.9996 18.1371" stroke="white"/>
<line y1="-0.5" x2="4.14206" y2="-0.5" transform="matrix(0.722684 0.691179 -0.742082 0.67031 1.69434 18.1371)" stroke="white"/>
<line y1="-0.5" x2="4.14206" y2="-0.5" transform="matrix(-0.722684 0.691179 0.742082 0.67031 20.5658 18.1371)" stroke="white"/>
<line x1="4.68774" y1="20.5" x2="17.5724" y2="20.5" stroke="white"/>
<line x1="1" y1="16.5282" x2="20.9998" y2="16.5282" stroke="white"/>
<line x1="1.00024" y1="17.6371" x2="21" y2="17.6371" stroke="white"/>
<path d="M1.28999 16.7819C0.266792 17.7514 2.77036 14.9253 2.57443 14.5333C2.3785 14.1414 3.20576 13.1512 3.27107 12.553C3.33638 11.9548 4.92561 11.7898 5.16508 11.7898C5.40455 11.7898 6.55837 10.4695 6.73253 10.1395C6.90669 9.80942 8.47414 10.387 8.75716 10.1395C9.04017 9.89194 10.6729 9.04617 11.0866 9.10805C11.5002 9.16994 12.7411 9.93319 12.9806 10.1395C13.22 10.3458 14.8093 10.1395 15.2447 10.1395C15.6801 10.1395 16.3985 11.7898 16.8121 11.7898C17.2257 11.7898 18.8585 12.3055 18.7714 12.553C18.6843 12.8006 19.1633 14.5333 19.5334 14.5333C19.9035 14.5333 21.2097 17.8958 20.9702 16.7819" stroke="white"/>
<path d="M5.18664 3.94354C5.18664 3.94354 5.05649 4.64919 4.34068 5.23387C3.62486 5.81854 3.64656 6.28225 3.64656 6.28225C3.64656 6.28225 3.71163 6.82661 4.34068 7.24999C4.96972 7.67338 5.05649 7.65322 5.18664 8.37903C5.31678 9.10483 4.86127 9.62903 4.86127 9.62903C4.86127 9.62903 4.81788 9.62903 4.57928 10.0323C4.34068 10.4355 3.92854 10.6371 3.92854 10.6371L3.64656 11.1411" stroke="white"/>
<path d="M16.7264 1.7258C16.7264 1.7258 16.5963 2.43144 15.8805 3.01612C15.1647 3.6008 15.1864 4.06451 15.1864 4.06451C15.1864 4.06451 15.2514 4.60886 15.8805 5.03225C16.5095 5.45564 16.5963 5.43548 16.7264 6.16128C16.8566 6.88709 16.4011 7.41128 16.4011 7.41128C16.4011 7.41128 16.3577 7.41128 16.1191 7.81451C15.8805 8.21774 15.4683 8.41935 15.4683 8.41935L15.1864 8.92338" stroke="white"/>
<path d="M12.6051 1C12.6051 1 12.4749 1.70565 11.7591 2.29032C11.0433 2.875 11.065 3.33871 11.065 3.33871C11.065 3.33871 11.1301 3.88306 11.7591 4.30645C12.3882 4.72984 12.4749 4.70968 12.6051 5.43548C12.7352 6.16129 12.2797 6.68548 12.2797 6.68548C12.2797 6.68548 12.2363 6.68548 11.9977 7.08871C11.7591 7.49194 11.347 7.69355 11.347 7.69355L11.065 8.19758" stroke="white"/>
<path d="M7.0564 1.7258C7.0564 1.7258 7.20084 2.42947 7.99529 3.01251C8.78974 3.59555 8.76567 4.05796 8.76567 4.05796C8.76567 4.05796 8.69345 4.60079 7.99529 5.02299C7.29714 5.44519 7.20084 5.42509 7.0564 6.14886C6.91195 6.87263 7.41751 7.39536 7.41751 7.39536C7.41751 7.39536 7.46566 7.39536 7.73048 7.79745C7.99529 8.19955 8.4527 8.4006 8.4527 8.4006L8.76567 8.90322" stroke="white"/>
<rect x="8.33191" y="10.9193" width="0.130148" height="0.120968" fill="#D9C666"/>
<rect x="11.1517" y="11.2419" width="0.130148" height="0.120968" fill="#D9C666"/>
<rect x="12.8871" y="10.8387" width="0.130148" height="0.120968" fill="#D9C666"/>
<rect x="15.9672" y="12.6532" width="0.130148" height="0.120968" fill="#D9C666"/>
<rect x="18.1364" y="15.1129" width="0.130148" height="0.120968" fill="#D9C666"/>
<rect x="15.3164" y="13.7823" width="0.130148" height="0.120968" fill="#D9C666"/>
<rect x="13.7546" y="15.1129" width="0.130148" height="0.120968" fill="#D9C666"/>
<rect x="13.5377" y="12.371" width="0.130148" height="0.120968" fill="#D9C666"/>
<rect x="11.976" y="13.7823" width="0.130148" height="0.120968" fill="#D9C666"/>
<rect x="9.98035" y="15.1129" width="0.130148" height="0.120968" fill="#D9C666"/>
<rect x="9.6333" y="12.371" width="0.130148" height="0.120968" fill="#D9C666"/>
<rect x="8.33191" y="13.7823" width="0.130148" height="0.120968" fill="#D9C666"/>
<rect x="7.24731" y="12.0887" width="0.130148" height="0.120968" fill="#D9C666"/>
<rect x="5.55542" y="13.5" width="0.130148" height="0.120968" fill="#D9C666"/>
<rect x="4.42749" y="15.1129" width="0.130148" height="0.120968" fill="#D9C666"/>
</svg>
